<?xml version="1.0" encoding="utf-8"?>
<!-- Generator: Adobe Illustrator 25.0.0, SVG Export Plug-In . SVG Version: 6.00 Build 0)  -->
<svg version="1.1" id="Layer_1" xmlns="http://www.w3.org/2000/svg" xmlns:xlink="http://www.w3.org/1999/xlink" x="0px" y="0px"
	 viewBox="0 0 500 500" enable-background="new 0 0 500 500" xml:space="preserve">
<g>
	<g>
		<g enable-background="new    ">
			<g enable-background="new    ">
				<defs>
					<path id="SVGID_1_" enable-background="new    " d="M71.8,315.9c-1.4-4.7-3.1-11-3.8-15.9c-0.6-4.2-1.7-9.8-2.1-14.1
						c-0.5-4.8-0.9-11.2-1-16c-0.1-4.2,0-9.7,0.3-13.8c0.3-4.8,1.2-11.2,1.7-16c0.6-5,2.1-11.5,3.3-16.4c2-7.7,5.5-17.7,8.4-25.1
						c1.9-4.9,5-11.3,7.6-15.9c3.1-5.5,7.3-12.8,11.1-17.8c2.1-2.8,4.8-6.7,7.1-9.3c3.5-4.2,8.4-9.7,12.3-13.7
						c4-4.1,9.7-9.3,14.3-12.8c2.8-2.2,6.5-5.1,9.4-7.1c3.5-2.4,8.2-5.5,11.9-7.6c4.2-2.4,11.1-6.4,21.9-10.9c3.6-1.5,7.8-3,9.2-3.5
						c4.7-1.6,7.5-2.5,13.1-4c10.7-2.9,20.1-4.2,23.7-4.6c4.4-0.5,8.3-0.9,11.8-1.1c4-0.2,9.4-0.3,13.4-0.3c2.9,0,6.8,0.2,9.7,0.5
						c3.9,0.3,9.2,0.9,13.1,1.5c6.1,0.9,14.1,2.8,20.1,4.2c43.7,11.8,80.3,47.9,95.6,101.2c25.4,88.7-17.4,191.8-95.7,230.3
						c78.3-38.5,121.1-141.6,95.7-230.3C368.4,144,331.9,108,288.1,96.1c5.8,1.7,13.5,4,19,6.3c4.5,1.9,10.6,4.6,15,6.8
						c3.5,1.7,8,4.1,11.2,6.2c4,2.6,9.4,6,13.2,8.8c3.2,2.3,7.4,5.7,10.4,8.2c8.8,7.5,15.8,15,20.6,20.7c3,3.6,6.8,8.6,9.5,12.4
						c2.4,3.4,5.4,8.1,7.5,11.7c2.4,4.1,5.4,9.7,7.4,14c1.8,3.9,3.9,9.2,5.5,13.1c2.2,5.5,4.6,13.1,5.9,18.8c0.9,4.2,2.3,9.8,3,14
						c0.8,4.8,1.4,11.2,2,16c0.5,4.2,0.6,9.8,0.5,14c0,4.8-0.5,11.2-0.7,16c-0.3,4.9-1.2,11.5-2.3,16.3c-1.7,7.8-4.2,18.3-6.9,25.8
						c-1.7,4.8-4.3,11.2-6.4,15.8c-1.6,3.5-4,8.1-5.8,11.5c-2.7,5-6.9,11.3-10,16.1c-2,3-5,6.7-7.2,9.6c-2.3,3-5.8,6.8-8.4,9.6
						c-2.1,2.3-5.1,5.2-7.4,7.4c-2.2,2.2-5.2,4.9-7.6,6.8c-3.4,2.8-7.9,6.3-11.5,8.9c-2,1.4-9.1,6.5-18.7,11.7
						c-7,3.8-13.2,6.5-16.2,7.7c-3.4,1.4-5.9,2.3-9.1,3.5c-3.6,1.3-7.4,2.5-8.7,2.8c-3.2,0.9-5.2,1.5-8.8,2.3
						c-5.2,1.2-9,1.9-9.2,1.9c-3.2,0.6-6.2,1.1-10.1,1.6c-3.4,0.4-7.9,0.8-11.3,1c-8.6,0.5-15.5,0.3-15.6,0.3
						c-2.4-0.1-5.7-0.2-8.1-0.4c-3.9-0.3-9.2-0.8-13.1-1.5c-6.1-1-14.2-2.6-20.1-4.2c-5.7-1.5-13.2-3.9-18.6-6.1
						c-4.6-1.9-10.7-4.3-15-6.7c-3.4-1.9-8-4.2-11.2-6.2c-4.1-2.5-9.4-6-13.3-8.8c-6.5-4.7-14.5-11.8-20.3-17.3
						c-3.5-3.2-7.6-8.1-10.7-11.6c-3.2-3.5-7-8.5-9.5-12.4c-4.6-7-10.2-16.6-14.2-24c-2.3-4.4-4.8-10.6-6.5-15.2
						C74.8,325.5,73.1,320,71.8,315.9z"/>
				</defs>
				<clipPath id="SVGID_2_">
					<use xlink:href="#SVGID_1_"  overflow="visible"/>
				</clipPath>
				<g clip-path="url(#SVGID_2_)">
					<g>
						<g>
							<path fill="#0A00FF" d="M374,188.2c-7.9-13.4-7.9-13.4-10.5-17.4c0,0,0,0-0.1,0c0.5,2.3,0.8,3.8,0.9,4.6
								c0.4,3.4,1.1,8,1.4,11.5C368.6,187.2,371.4,187.7,374,188.2 M366.4,201.6c-1.2-0.1-2.5-0.3-3.7-0.4
								c-0.1-14.2-0.2-22-2.7-34.6c1.2,0.2,2.4,0.4,3.5,0.6c9.2,13.8,14.3,21.5,21.3,37.7c-1-0.3-2-0.5-3-0.7l-5.7-12
								c-3.2-0.7-6.6-1.2-10.1-1.7L366.4,201.6"/>
							<path fill="#0A00FF" d="M333,175.3c2.4,5.4,6.9,5.7,8.4,5.7c3,0,5.9,0.1,8.7,0.3c-1.5-4.4-3.2-8.6-4.9-12.7
								c-2.9-0.2-5.8-0.2-8.9-0.3C334.3,168.4,330,168.5,333,175.3 M336.2,200.6c0-0.1,0-0.1-0.1-0.2c0.6-1,0.2-3.6-0.7-8.1
								c-1.3-6.2-1.1-7.8,1.6-9.4c0,0,0-0.1,0-0.1c-9.6-3.8-11.6-14.9-6.6-17.3c1.2-0.6,2.2-0.6,3.4-0.6c4.7,0,9.2,0.2,13.5,0.5
								c4,8.7,7.4,18,10.3,28c0.7,2.6,1.4,5.2,2.1,7.8c-1.2-0.1-2.4-0.2-3.6-0.2c-0.6-2.6-1.3-5.2-2.1-7.8c-0.8-2.7-1.6-5.4-2.5-8
								c-2.7-0.1-5.4-0.2-8.2-0.3c-5.1,0.3-5,2.5-3.4,9.5c1.2,5.2,0.9,5.8,0.7,6.3C339.1,200.5,337.6,200.6,336.2,200.6"/>
							<path fill="#0A00FF" d="M309.7,202.4c2.2-6.1,5-14.2,7.1-20.3l7.2,5.5c0.6,1.8,1.1,3.6,1.6,5.5c0.7,2.6,1.4,5.2,2.1,7.8
								c1.4-0.1,2.7-0.1,4.1-0.2c-0.7-2.6-1.4-5.2-2.1-7.8c-2.9-10-6.2-19.3-9.8-28c-1.3,0.1-2.7,0.1-4,0.2c2.3,5.4,4.4,11.1,6.4,17
								c-6.7-4.9-15.7-11.2-22.6-15.7c-1.8,0.2-3.6,0.4-5.4,0.6c5.7,3.6,13.2,8.5,18.7,12.3c-4.6,13.4-5.4,15.8-8.3,23.7
								C306.4,202.8,308.1,202.6,309.7,202.4"/>
							<path fill="#0A00FF" d="M271.2,195.5c5.5,16,23.7,10.8,27,5c2-3.4,1-7.3,0.4-9.3c-2.5-8.3-5.2-16.2-8-23.6
								c-1.4,0.2-2.9,0.4-4.4,0.6c2.8,7.3,5.4,15,7.8,23.2c3.1,13.9-11.9,10.7-14,9.4c-2.6-1.6-3.5-4-4.5-6.5
								c-2.4-8.2-4.9-15.9-7.5-23.2c-1.5,0.3-3,0.5-4.5,0.8C266.2,179.3,268.7,187.2,271.2,195.5"/>
							<path fill="#0A00FF" d="M238.8,206.2c4.6,11.5,23.4,7.3,27.6-1.2c1.8-3.7,1.1-7.5,0.7-9.2c-1.5,0.3-3,0.6-4.5,0.9
								c1.7,14.2-13.8,13.3-16.8,11.2c-3.1-2.2-3.2-6.3-2.8-7.3c1-2.3,1.8-3.5,9-7c5.1-2.4,11.3-5.4,9-12.4
								c-1.1-3.2-4.6-8.4-15.3-6.3c-8.5,2.2-11.5,6.3-10.6,14c1.5-0.4,2.9-0.7,4.4-1.1c-1-11.9,13.3-10.7,15.8-8.1
								c5.3,5.2-2.6,8.8-6.3,10.5C242.9,192.8,234.9,196.5,238.8,206.2"/>
							<path fill="#0A00FF" d="M205.6,215.3c5,13.4,18.5,6,20.8,1.6c1.9-3.7,0.8-8,0.2-10.3c-0.1-0.2-0.1-0.3-0.2-0.5
								c-1.5,0.4-3.1,0.9-4.6,1.3c0,0.1,0.1,0.2,0.1,0.4c3.4,14.3-8.6,10.5-8.8,10.4c-1.7-1-2.4-2.8-3-4.6c-2.6-9.2-5-18-7.3-26.3
								c-1.5,0.5-3.1,1-4.6,1.5C200.5,197.1,202.9,206,205.6,215.3"/>
							<path fill="#0A00FF" d="M167.6,220.2c1,3.3,5.1,13.6,16.9,9.4c4-1.7,5.9-3.4,7.9-6.9c-14.9-8.2-14.9-8.2-25-13.6
								C167,210.8,165.9,214.7,167.6,220.2 M193.4,220.1c2.9-12.5-6-27.2-19.5-19.1c-3.2,1.9-4.5,4.1-5.4,5.6
								C181.7,213.5,184.4,215,193.4,220.1 M163.7,207.3l-4.8-2.6l1.5-2.5l4.7,2.4c3.7-5.6,7.4-7.7,12.6-9.4
								c18.4-4.2,23.9,15,19.9,27c1.7,1,3.9,2.2,5.6,3.2l-1.4,2.5l-5.4-3.1c-8.9,14.1-28.7,14.6-33.4-3.6
								C161,214.4,162.8,209.6,163.7,207.3"/>
							<path fill="#0A00FF" d="M135,226.9c1.6,5.4,6.5,3.2,8.1,2.5c0.1,0,0.1-0.1,0.2-0.1c3.2-1.6,6.5-3.1,9.8-4.6
								c-1.1-4.5-2.1-8.8-3-13.1c-3.3,1.5-6.5,3-9.7,4.6c-0.1,0.1-0.3,0.1-0.4,0.2C137.9,217.5,133,220.1,135,226.9 M137.3,254.8
								c0-0.1,0-0.1-0.1-0.2c0.5-1.3,0.2-3.2-1-8.8c-1.5-6.8-0.5-9,2-11.8c0,0,0-0.1,0-0.1c-9.5,0.4-9.2-12-4.6-17.2
								c1.6-1.9,3.4-2.8,4.5-3.4c0.5-0.3,1.1-0.5,1.6-0.8c4.5-2.2,9.2-4.4,13.9-6.5c1.8,9.1,4.2,18.7,7,28.6
								c0.7,2.6,1.5,5.2,2.3,7.7c-1.4,0.6-2.9,1.3-4.3,2c-0.8-2.6-1.6-5.2-2.3-7.7c-0.8-2.7-1.5-5.4-2.2-8.1
								c-3.2,1.5-6.3,2.9-9.4,4.4c-5.4,3-5.7,5.6-4.1,12.9c1.1,4.8,1.2,5.7,0.9,6.8C140.1,253.3,138.6,254.1,137.3,254.8"/>
							<path fill="#0A00FF" d="M110.1,271.3c0.6-0.4,1.3-0.9,1.9-1.3l-0.7-5.5c0,0,0,0,0.1-0.1c9.3,7.2,20.3-6.1,18.4-22.4
								c-0.3-2.4-3.2-23.3-18-15.2c-3.8,2.6-8.8,7.2-8.2,18.2c1-0.7,2.1-1.4,3.1-2.1c0-12.8,10.2-16.1,14.5-11.6
								c8,8.4,5.9,30.5-5.3,30.9c-3.3,0.1-5.7-2.5-7.2-7.8c-0.1-0.3-0.1-0.6-0.2-0.9c2.4-1.7,5-3.3,7.7-5c-0.3-1.3-0.7-2.7-1-4
								c-3.8,2.3-7.3,4.7-10.7,7c0.9,4,1.9,8,3.1,12C108.5,266.2,109.3,268.8,110.1,271.3"/>
							<path fill="#0A00FF" d="M92,286c4.1-3.9,8.8-7.8,14.2-11.8c-0.8-2.6-1.6-5.1-2.4-7.7c-2.9-10-4.9-19.7-6.1-29.2
								c-5.2,3.8-9.7,7.6-13.7,11.3c0.1,1.3,0.3,2.7,0.5,4c3.3-3.1,6.9-6.2,11-9.3c0.6,3.8,1.3,7.7,2.1,11.5
								c-3.7,2.9-7.1,5.7-10.2,8.6c0.3,1.3,0.6,2.6,0.9,3.9c3.1-2.8,6.5-5.7,10.2-8.6c0.8,3.2,1.6,6.5,2.5,9.8
								c0.3,1.1,0.7,2.3,1,3.4c-4.2,3.3-8.1,6.5-11.4,9.7C91,283.1,91.5,284.5,92,286"/>
							<path fill="#0A00FF" d="M79.6,300.5c0.4-0.6,0.9-1.3,1.3-2c-1.4-18.6-1.5-19.7-0.8-33.1c0.1-1.9,0.2-3.7,0.3-5.6
								c0-0.2,0-0.2,0-0.2c1.1,7.5,2.8,15.2,5,22.9c0.7,2.6,1.5,5.1,2.4,7.7c0.6-0.6,1.2-1.2,1.8-1.9c-0.8-2.5-1.6-5.1-2.4-7.7
								c-2.9-10-4.8-19.8-5.8-29.4c-0.7,0.7-1.4,1.4-2,2.1c-1.6,18.1-1.7,19.6-1.2,32.9c0.1,1.3,0.2,2.8,0.5,5.8c0,0.2,0,0.2,0,0.2
								c-0.1-0.4-0.2-0.7-0.3-1.1c-2.9-10-4.7-19.9-5.7-29.6c-0.4,0.6-0.8,1.2-1.2,1.8c0.9,9.7,2.8,19.6,5.7,29.6
								C77.9,295.4,78.7,298,79.6,300.5"/>
							<path fill="#0A00FF" d="M71.1,304.9c0.9,3.1,2.7,8,4.2,5c1.2-2.4,2.1-7.9-0.7-20.2c-0.4,0.6-0.7,1.2-1,1.8
								c3.2,15-0.2,15.1-0.3,15.1c-0.1,0-4.7-5.5-2.5-17.5c2.2-11.8-0.8-24.7-3.3-19.3c-0.5,1.4-1.8,5.1-0.2,16.9
								c0.1-0.5,0.2-1.1,0.4-1.6c-1.4-11.2,0.5-12.5,1.1-12.6c0,0,3,2.5,0.8,14.1C69.1,288.8,68.1,294.6,71.1,304.9"/>
							<path fill="#0A00FF" d="M73.6,315.7c-0.9-2.5-1.7-5.1-2.4-7.7c-2.9-10-4.7-20-5.6-29.9c-0.1,1.4-0.2,2.7,0,4l0.4,3.7l0.1,1
								c-0.1-1-0.1-1.9-0.1-2.9c0.5,4,1.1,7.9,1.8,11.9c0,1.5,0.1,3,0.3,4.4l0.9,4.5c-0.3-1.6-0.5-3.2-0.4-4.9
								c0.7,3.3,1.5,6.6,2.5,9.8c0.3,1.1,0.7,2.3,1,3.4c0.2,2,0.4,4.6,0.9,6.5l1.6,4.8C73.9,321.9,74,318.3,73.6,315.7"/>
							<g>
								<path fill="#0A00FF" d="M407.4,204.5c0.5,0.9,0.9,1.8,1.3,2.8L407,203c-0.3-0.8-0.7-1.6-1.1-2.3
									C406.5,201.9,406.9,203.2,407.4,204.5"/>
								<path fill="#0A00FF" d="M400.9,189c0.3,0.5,0.6,1,0.8,1.6l-0.4-0.9l-1.7-3.3c-0.2-0.4-0.4-0.7-0.6-1.1
									C399.6,186.5,400.3,187.7,400.9,189"/>
								<path fill="#0A00FF" d="M412.1,221.1c1.1,1.8,1.9,3.7,2.3,5.7l-1.2-4.9c-0.5-1.8-1.2-3.5-2.2-5.2
									C411.4,218.2,411.7,219.7,412.1,221.1"/>
							</g>
							<path fill="#0A00FF" d="M402.1,211.7c0.6,0.4,1.2,0.8,1.8,1.2c-0.7-12.3-0.8-13-3-21.1c-0.2-0.8-0.5-1.7-1.2-3.5
								c0-0.1,0-0.1,0-0.1c3.2,7.1,6,14.5,8.2,22.2c0.7,2.6,1.4,5.2,2,7.8c0.4,0.4,0.7,0.8,1,1.3c-0.6-2.6-1.3-5.2-2-7.8
								c-2.9-10-6.6-19.4-11.1-28.3c-0.4-0.5-0.7-0.9-1.1-1.4c3.7,10.8,3.9,11.4,4.9,20c0.1,1.3,0.3,2.7,0.4,4c0,0.1,0,0.1,0,0.1
								c-0.1-0.4-0.2-0.7-0.3-1.1c-2.9-10-6.6-19.4-11-28.2c-0.5-0.4-1.1-0.7-1.6-1c4.4,8.8,8.1,18.2,11,28.1
								C400.8,206.5,401.4,209.1,402.1,211.7"/>
						</g>
					</g>
				</g>
			</g>
			<g enable-background="new    ">
				<defs>
					<path id="SVGID_3_" enable-background="new    " d="M195.8,437.9c-3.4-1-8-2.2-11.3-3.5c-5.6-2.1-13-5-18.4-7.5
						c-7-3.2-15.8-8.5-22.4-12.6c-4.5-2.8-10.3-7-14.3-10.5c-3.7-3.2-8.6-7.5-12.2-10.9c-2.9-2.8-6.6-6.8-9.3-9.9
						c-3.1-3.6-7.3-8.5-9.9-12.5c-2.3-3.5-5.5-8-7.6-11.6c-2.5-4.1-5.7-9.6-7.6-14c-1.7-3.9-4.2-9-5.7-13c-1.8-4.7-4-11.1-5.4-15.9
						c-2.4-8.2-4.6-19.5-5.7-28.1c-0.6-4.7-1.2-11.1-1.2-15.8c0-4.2-0.1-9.7,0.2-13.9c0.3-4.7,0.7-11,1.5-15.6
						c0.7-4,1.5-9.4,2.4-13.3c1-4.6,2.6-10.7,4-15.2c3.4-10.7,7.4-20,11-27c1.7-3.4,4.1-7.9,6.1-11.1c2.6-4.2,6.3-9.7,9.2-13.8
						c3.4-4.9,8.4-11,12.5-15.2c2-2.1,4.7-5,6.9-7c4.2-3.9,9.9-9,14.4-12.5c4.8-3.8,12.6-9.4,22.8-15.1c2.4-1.3,5.5-3,8-4.2
						c3-1.4,7-3.2,10-4.5c0.9-0.4,5.7-2.4,13.7-5c1.3-0.4,3-1,4.4-1.3c1.3-0.4,3-0.9,4.4-1.2c3.4-0.9,3.8-1,8.9-2.1
						c4.4-1,10.8-2,14.6-2.5c8.7-1.1,14.1-1.2,18-1.3c7.5-0.2,15.4,0.3,15.4,0.3c8.8,0.6,12.8,1.3,19.9,2.4c4.5,0.8,10.5,2.2,15,3.4
						c-29-7.8-61.1-5.1-92.3,10.2c31.2-15.3,63.3-18.1,92.3-10.2c3.4,1,8,2.2,11.3,3.5c5.7,2.1,13.3,5.2,18.8,7.7
						c7,3.2,15.8,8.6,22.3,12.7c4.5,2.8,10.2,7,14.2,10.6c3.7,3.2,8.6,7.5,12.1,11c2.9,2.8,6.6,6.8,9.3,9.9
						c3.1,3.7,7.1,8.7,9.9,12.6c2.4,3.4,5.5,8,7.6,11.6c2.5,4.1,5.5,9.7,7.6,14.1c1.9,3.8,4,9.1,5.7,13c1.9,4.5,3.8,10.8,5.2,15.4
						c1.2,4.2,2.4,9.8,3.4,14c1.3,5.7,2.1,13.4,2.8,19.2c0.5,4.2,0.7,9.8,0.7,14c0,4.7-0.2,11-0.5,15.7c-0.3,4.1-1,9.5-1.6,13.6
						c-0.8,4.6-2.2,10.7-3.1,15.3c-0.8,3.9-2.4,9-3.7,12.8c-1.5,4.5-3.9,10.4-5.7,14.8c-1.9,4.7-5.1,10.7-7.5,15.2
						c-3.5,6.4-8.8,14.6-13.2,20.5c-3.1,4.1-7.6,9.4-11,13.3c-2.1,2.4-5.1,5.3-7.3,7.5c-2.6,2.6-6.2,5.9-9,8.2
						c-3.6,3-8.5,6.7-12.2,9.4c-0.3,0.2-7.9,5.7-18.7,11.5c-12.3,6.6-23.4,10.5-29,12.3c-2.2,0.7-4.7,1.5-8.7,2.6
						c-3.4,0.9-4.1,1.1-8.9,2.1c-5,1.1-12,2.2-14.6,2.5c-3.4,0.4-7.9,0.8-11.3,1.1c-2,0.2-4.7,0.2-6.8,0.3
						c-7.5,0.2-15.4-0.3-15.4-0.3c-8.7-0.6-12.8-1.2-19.9-2.4C206.2,440.5,200.2,439.1,195.8,437.9z"/>
				</defs>
				<clipPath id="SVGID_4_">
					<use xlink:href="#SVGID_3_"  overflow="visible"/>
				</clipPath>
				<g clip-path="url(#SVGID_4_)">
					<g>
						<g>
							<g>
								<path fill="#0A00FF" d="M69.5,306.6c-0.2-0.6-0.4-1.2-0.5-1.8l-0.9-4.5c0.1,0.8,0.3,1.5,0.6,2.3
									C68.9,303.9,69.2,305.3,69.5,306.6"/>
								<path fill="#0A00FF" d="M67.1,291.3c-0.5-1.4-0.8-2.9-1-4.4l-0.1-1l-0.4-3.7c0.1,1.7,0.5,3.3,1.1,4.9
									C66.8,288.5,66.9,289.9,67.1,291.3"/>
								<path fill="#0A00FF" d="M74.7,325l-0.2-0.5l-1.6-4.8l0.4,1C73.7,322.1,74.2,323.6,74.7,325"/>
							</g>
							<path fill="#0A00FF" d="M82.5,335.1c-0.5-0.4-1-0.8-1.5-1.3c-7.1-17.2-7.5-18.3-10.8-31.1c-0.3-1.2-0.6-2.7-1.2-5.4
								c0-0.2,0-0.2,0-0.2c1,7.8,2.6,15.6,4.9,23.3c0.7,2.6,1.5,5.1,2.4,7.6c-0.3-0.4-0.5-0.9-0.7-1.4c-0.9-2.5-1.7-5.1-2.4-7.7
								c-2.9-10-4.7-20-5.6-30c0.2,0.5,0.5,1,0.8,1.5c3.8,17.7,4,18.8,8.6,31.3c1,2.6,1.3,3.5,2.1,5.4c0.1,0.2,0.1,0.2,0.1,0.2
								c-0.1-0.4-0.2-0.7-0.3-1.1c-2.9-10-4.7-20.1-5.7-30.2c0.4,0.4,0.9,0.8,1.4,1.1c1,10.1,2.8,20.2,5.7,30.2
								C80.8,330,81.6,332.5,82.5,335.1"/>
							<path fill="#0A00FF" d="M107.6,345.5c-1-0.2-1.9-0.4-2.8-0.7c-0.8-2.5-1.6-5-2.4-7.6c-2.2-7.7-3.9-15.6-5.1-23.5
								c0,0,0,0-0.1,0c-0.7,14.8-0.5,20.2,0.6,29.1c-0.7-0.2-1.3-0.4-1.9-0.7c-8-17.3-8.3-18-11.7-28.3c-0.3-1-0.8-2.5-1.5-5
								c-0.1-0.1-0.1-0.2-0.1-0.2c1.1,7.9,2.8,15.7,5,23.5c0.7,2.6,1.5,5.1,2.4,7.6c-0.6-0.3-1.2-0.6-1.8-0.9
								c-0.9-2.5-1.6-5.1-2.4-7.6c-2.9-10-4.8-20.1-5.8-30.2c0.8,0.4,1.7,0.9,2.6,1.3c5.5,18.4,5.8,19.5,12.3,34.1c0,0,0,0,0.1,0
								c-0.7-14.6-0.8-16.4,0.4-29.6c1.2,0.3,2.5,0.6,3.7,0.9c1.2,10.2,3.3,20.4,6.1,30.4C106,340.5,106.8,343,107.6,345.5"/>
							<path fill="#0A00FF" d="M112.7,332c0.4-13.7,0.4-13.7,0.7-17.7c0,0,0.1,0,0.1,0c1,2.8,1.7,4.6,2.1,5.6
								c1.8,3.9,4,9.3,5.9,13.1C118.5,332.7,115.6,332.4,112.7,332 M129.9,348.5c1.3,0.1,2.6,0.2,3.9,0.2
								c-8.4-14.7-13-22.8-19.1-38.8c-1.3-0.1-2.5-0.3-3.7-0.4c-1.1,12.6-2,22.5-0.7,36.5c1,0.2,2.1,0.4,3.2,0.6l-0.6-10.9
								c3.4,0.5,7,0.9,10.7,1.2L129.9,348.5"/>
							<path fill="#0A00FF" d="M149.6,322.7c0.9,6.1-3.7,6.3-5.2,6.4c-3.1,0.1-6.1,0.1-9.1,0c-1.1-4.7-2-9.4-2.8-14.1
								c3,0,6.1,0,9.3,0C143.9,315.1,148.5,315.1,149.6,322.7 M161.3,348.4c0-0.1,0-0.1-0.1-0.2c-1.1-0.8-2.1-2.8-3.9-7.9
								c-2.3-6.3-3.5-7.9-7.2-9.4c0-0.1,0-0.1,0-0.2c8.1-4.8,2.1-17.7-5-19.6c-1.2-0.3-2.2-0.3-3-0.4c-4.8,0.1-9.5,0.1-14.1,0
								c1.6,10.3,3.7,20.4,6.6,30.4c0.7,2.6,1.5,5.1,2.3,7.6c1.2,0,2.5,0.1,3.8,0.1c-0.8-2.5-1.6-5-2.3-7.6
								c-0.8-2.7-1.5-5.4-2.2-8.2c2.8,0,5.7,0,8.6,0c5.5,0.2,6.8,2.5,9.2,9.5c1.8,5.1,2.4,5.6,2.9,6.1
								C158.4,348.6,159.8,348.5,161.3,348.4"/>
							<path fill="#0A00FF" d="M188.5,345.8c-5.6-5.3-13-12.4-18.5-17.8l-3.9,6.6c0.5,1.9,1,3.7,1.5,5.6c0.7,2.6,1.5,5.1,2.3,7.6
								c-1.4,0.1-2.8,0.2-4.2,0.3c-0.8-2.5-1.6-5-2.3-7.6c-2.9-10-5.2-20.1-7.1-30.4c1.4-0.1,2.8-0.2,4.1-0.3
								c1.2,6.4,2.6,12.8,4.1,19.1c3.7-6.3,8.7-14.6,12.5-20.9c1.8-0.2,3.6-0.5,5.5-0.7c-3.2,5.1-7.4,12-10.5,17.1
								c12.8,12.9,13.9,13.9,21.5,20.7C191.9,345.4,190.2,345.6,188.5,345.8"/>
							<path fill="#0A00FF" d="M220.6,327.6c3.9,16.7-15.8,17.8-22.2,13.5c-3.7-2.5-4.9-6.4-5.6-8.5c-2.4-8.5-4.5-17.2-6.3-25.9
								c1.5-0.2,3-0.5,4.4-0.7c1.9,8.5,4,17,6.3,25.4c4.9,13.9,17,6,18.2,4.1c1.5-2.4,1-4.7,0.5-7.5c-2.3-8.4-4.5-16.9-6.6-25.4
								c1.5-0.3,3-0.6,4.6-0.9C216,310.4,218.2,319.1,220.6,327.6"/>
							<path fill="#0A00FF" d="M255,322.6c2,11.5-15.7,17.8-24.9,11.5c-3.6-2.5-5-6.1-5.7-7.9c1.5-0.3,3-0.7,4.6-1
								c6.4,13.6,19.3,5.7,20.9,2.2c1.4-3.2-0.4-6.9-1.5-7.7c-2.3-1.7-3.8-2.1-11.7-2c-5.2,0.1-13,0.2-15-7.7
								c-0.9-3.6-0.8-10.1,9.8-13.1c8.6-1.9,13.6,0.5,17.2,8.2c-1.5,0.4-2.9,0.8-4.4,1.2c-5.7-11.2-17.5-4.7-18.5-0.3
								c-1.7,7.7,8.3,7.3,11.6,7.2C244.5,312.8,253.3,312.5,255,322.6"/>
							<path fill="#0A00FF" d="M287.8,311.6c2.9,14.3-12.7,16.4-17.4,12.9c-2.9-2.2-4.1-5.9-4.8-8c-0.1-0.2-0.1-0.4-0.2-0.5
								c1.5-0.5,3.1-0.9,4.6-1.4c0,0.1,0.1,0.3,0.1,0.4c4.8,14.3,12.7,3.7,12.8,3.6c0.9-1.9,0.5-3.6,0.1-5.6
								c-2.7-9.3-5.5-18.6-8.5-27.9c1.5-0.5,3-1,4.5-1.6C282.2,292.8,285.1,302.2,287.8,311.6"/>
							<path fill="#0A00FF" d="M320.4,289.1c1,3.4,3.2,15-8.3,20c-4,1.5-6.4,1.5-9.8,0c7.2-16.4,8.1-18.5,12.4-29.5
								C315.9,280.7,318.7,283.2,320.4,289.1 M300.1,307.7c-11.7-11-6.8-30.7,7.7-30.6c2.1,0,3.3,0.5,4.6,1.1
								C305.5,295.4,305.3,296.1,300.1,307.7 M316.4,275l2.2-6.3l-2.4-1l-2.2,6c-5.8-2-9.8-1.1-14.8,1.2
								c-16.5,9.7-10.6,30.2-1.2,37.2c-0.9,1.8-2,4.3-2.9,6.1l2.4,1.1l2.8-5.9c15.6,5.8,32.1-11.9,22.7-30.8
								C320.8,278.1,318.2,276.2,316.4,275"/>
							<path fill="#0A00FF" d="M347.3,266.7c1.7,6-2.8,8.6-4.2,9.5c-3,1.6-6.1,3.2-9.3,4.7c-0.1,0-0.2,0.1-0.2,0.1
								c-1.5-4.6-3.1-9.1-4.8-13.6c0.1,0,0.2-0.1,0.2-0.1c3.2-1.6,6.4-3.2,9.4-4.8C340.6,261.4,345.2,259.2,347.3,266.7
								 M359.5,289.9c0-0.1,0-0.1-0.1-0.2c-0.9-0.4-1.6-2-3.5-7.2c-2.3-6.5-4.1-7.2-7.2-7.2c0-0.1,0-0.1,0-0.2
								c6.6-8.4,0.1-19.2-6.8-18.5c-1.6,0.1-2.7,0.7-3.9,1.2c-3.4,1.8-6.9,3.6-10.5,5.4c-1.4,0.7-2.9,1.4-4.4,2.1
								c3.7,9.8,7,19.7,9.9,29.6c0.7,2.6,1.4,5.1,2.1,7.7c1.4-0.7,2.8-1.3,4.2-2c-0.7-2.5-1.4-5.1-2.1-7.7c-0.8-2.7-1.6-5.4-2.4-8.1
								c0.1,0,0.2-0.1,0.2-0.1c3-1.5,5.9-3,8.8-4.4c5.3-2.4,6.8-0.7,9.2,6.2c1.6,4.4,1.8,5.2,2.6,5.7
								C356.9,291.4,358.2,290.7,359.5,289.9"/>
							<path fill="#0A00FF" d="M384.6,273.4c-0.6,0.4-1.2,0.9-1.8,1.3l-2.1-4.3c0,0,0,0-0.1,0c-2.1,13.6-12.9,16.1-19.4,7.9
								c-3.7-4.7-12.9-25.4,0.7-35.8c3.6-2.2,9-4.1,14.1,5c-0.9,0.7-1.9,1.4-2.8,2.1c-6.4-10-13.3-0.6-14.3,4.2
								c-2.1,9.8,5.5,29.5,15,23.2c1.7-1.1,6.9-5.6,3.7-16.5c-0.1-0.3-0.2-0.6-0.3-0.9c-2.2,1.6-4.6,3.3-7.1,5
								c-0.4-1.4-0.9-2.7-1.4-4c3.5-2.3,6.8-4.7,9.8-7c1.4,4,2.7,8,3.8,12C383.3,268.3,384,270.9,384.6,273.4"/>
							<path fill="#0A00FF" d="M400.9,258.9c-3.6,3.8-7.8,7.7-12.6,11.6c-0.6-2.6-1.3-5.1-2-7.7c-2.9-10-6.5-19.7-10.7-29.1
								c4.7-3.8,8.7-7.5,12.2-11.2c0.6,1.3,1.2,2.6,1.8,3.9c-2.8,3-6.1,6.1-9.8,9.2c1.6,3.8,3.2,7.6,4.6,11.5
								c3.4-2.9,6.4-5.7,9.1-8.5c0.5,1.3,0.9,2.6,1.4,3.9c-2.7,2.8-5.7,5.6-9.1,8.5c1.1,3.2,2.1,6.5,3.1,9.7
								c0.3,1.1,0.6,2.3,0.9,3.4c3.8-3.2,7.2-6.4,10.2-9.6C400.2,256,400.5,257.5,400.9,258.9"/>
							<path fill="#0A00FF" d="M411.3,244.7c-0.3,0.6-0.7,1.3-1,1.9c-6.4-10.8-6.8-11.4-13-18.8c-0.6-0.8-0.8-0.9-2.7-3.2
								c-0.1-0.1-0.1-0.1-0.1,0c3.2,7.3,5.9,14.8,8.1,22.5c0.7,2.6,1.4,5.2,2,7.7c-0.5,0.6-1,1.2-1.5,1.8c-0.6-2.6-1.3-5.1-2-7.7
								c-2.9-10-6.6-19.6-11-28.9c0.6-0.7,1.2-1.4,1.7-2c9.1,9.8,9.8,10.6,14.9,18.2c0.4,0.7,1,1.7,2,3.6c0.1,0.1,0.1,0.1,0.1,0.1
								c-0.1-0.4-0.2-0.7-0.3-1.1c-2.9-10-6.6-19.6-11.1-28.7c0.3-0.6,0.6-1.1,0.9-1.7c4.5,9.1,8.3,18.7,11.1,28.7
								C410,239.5,410.7,242.1,411.3,244.7"/>
							<path fill="#0A00FF" d="M412.5,222.9c3.2,11.2,2.4,17.5,0.3,16c-1.5-1.1-3.4-6.4-4.2-8.7c0.3-0.6,0.5-1.2,0.8-1.8
								c1.9,5.1,2.5,6.3,3.5,6.4c2.3-2.3-1.2-15.5-3-15.7c-1.2-0.1-1.6,1.7-3,1.1c-0.8-0.3-1.7-1.6-2.7-3.6
								c-0.8-1.7-4.9-10.3-3.7-16.2c0.4-1.2,1.1-3.5,4.3,2.6c0.6,1.1,1.1,2.3,1.5,3.1c0,0.5-0.1,1.1-0.1,1.6
								c-1.8-3.8-2.6-4.9-3.5-4.9c-2.4,2.4,1.7,13,3.6,13c1.1,0,1.9-2.2,2.9-1.1C410.5,216.1,411.8,220.4,412.5,222.9"/>
							<path fill="#0A00FF" d="M401.3,189.7l0.4,0.9c0.8,1.7,1.4,3.5,1.6,5.4c1.7,3.6,3.3,7.3,4.8,11.1c-0.2-1.4-0.6-2.7-1.1-4
								l1.6,4.3c0.4,1.2,0.7,2.4,0.9,3.6c1.1,3.2,2.2,6.4,3.1,9.7c0.3,1.1,0.6,2.3,0.9,3.4c-0.1-0.7-0.2-1.4-0.4-2l1.2,4.9
								c0.2,1,0.4,2,0.5,3.1c-0.6-2.6-1.3-5.2-2-7.8c-2.9-10-6.6-19.5-11.2-28.4c-0.2-2.6-0.9-5.1-2-7.4L401.3,189.7"/>
						</g>
					</g>
				</g>
			</g>
		</g>
	</g>
</g>
</svg>
